<?xml version="1.0" encoding="UTF-8" standalone="no"?>
<!DOCTYPE svg PUBLIC "-//W3C//DTD SVG 1.1//EN"
 "http://www.w3.org/Graphics/SVG/1.1/DTD/svg11.dtd">
<!-- Generated by graphviz version 2.47.0 (20210316.0004)
 -->
<!-- Title: dependencies Pages: 1 -->
<svg width="554pt" height="211pt"
 viewBox="0.00 0.00 554.00 211.00" xmlns="http://www.w3.org/2000/svg" xmlns:xlink="http://www.w3.org/1999/xlink">
<g id="graph0" class="graph" transform="scale(1 1) rotate(0) translate(4 207)">
<title>dependencies</title>
<polygon fill="white" stroke="transparent" points="-4,4 -4,-207 550,-207 550,4 -4,4"/>
<text text-anchor="start" x="252.01" y="-42.4" font-family="Times-12" font-weight="bold" font-size="14.00">Legend</text>
<polygon fill="#ffffb3" stroke="transparent" points="39,-10 39,-30 59,-30 59,-10 39,-10"/>
<text text-anchor="start" x="62.63" y="-15.4" font-family="Times-12" font-size="14.00"> &#160;Declarations</text>
<polygon fill="#8dd3c7" stroke="transparent" points="152,-10 152,-30 172,-30 172,-10 152,-10"/>
<text text-anchor="start" x="175.73" y="-15.4" font-family="Times-12" font-size="14.00"> &#160;Module</text>
<polygon fill="#80b1d3" stroke="transparent" points="238,-10 238,-30 258,-30 258,-10 238,-10"/>
<text text-anchor="start" x="261.78" y="-15.4" font-family="Times-12" font-size="14.00"> &#160;Bootstrap</text>
<polygon fill="#fdb462" stroke="transparent" points="335,-10 335,-30 355,-30 355,-10 335,-10"/>
<text text-anchor="start" x="358.67" y="-15.4" font-family="Times-12" font-size="14.00"> &#160;Providers</text>
<polygon fill="#fb8072" stroke="transparent" points="431,-10 431,-30 451,-30 451,-10 431,-10"/>
<text text-anchor="start" x="454.73" y="-15.4" font-family="Times-12" font-size="14.00"> &#160;Exports</text>
<g id="clust1" class="cluster">
<title>cluster_RoutesModule</title>
<polygon fill="none" stroke="black" stroke-dasharray="1,5" points="8,-70 8,-195 538,-195 538,-70 8,-70"/>
</g>
<g id="clust3" class="cluster">
<title>cluster_RoutesModule_imports</title>
<polygon fill="none" stroke="black" points="314,-78 314,-130 530,-130 530,-78 314,-78"/>
</g>
<g id="clust6" class="cluster">
<title>cluster_RoutesModule_providers</title>
<polygon fill="none" stroke="black" points="16,-78 16,-130 306,-130 306,-78 16,-78"/>
</g>
<!-- StopsModule -->
<g id="node1" class="node">
<title>StopsModule</title>
<polygon fill="#8dd3c7" stroke="black" points="522.17,-122 519.17,-126 498.17,-126 495.17,-122 431.83,-122 431.83,-86 522.17,-86 522.17,-122"/>
<text text-anchor="middle" x="477" y="-99.8" font-family="Times,serif" font-size="14.00">StopsModule</text>
</g>
<!-- RoutesModule -->
<g id="node3" class="node">
<title>RoutesModule</title>
<polygon fill="#8dd3c7" stroke="black" points="348.44,-187 345.44,-191 324.44,-191 321.44,-187 249.56,-187 249.56,-151 348.44,-151 348.44,-187"/>
<text text-anchor="middle" x="299" y="-164.8" font-family="Times,serif" font-size="14.00">RoutesModule</text>
</g>
<!-- StopsModule&#45;&gt;RoutesModule -->
<g id="edge1" class="edge">
<title>StopsModule&#45;&gt;RoutesModule</title>
<path fill="none" stroke="black" d="M477,-122.11C477,-141.34 477,-169 477,-169 477,-169 358.58,-169 358.58,-169"/>
<polygon fill="black" stroke="black" points="358.58,-165.5 348.58,-169 358.58,-172.5 358.58,-165.5"/>
</g>
<!-- UsersModule -->
<g id="node2" class="node">
<title>UsersModule</title>
<polygon fill="#8dd3c7" stroke="black" points="413.92,-122 410.92,-126 389.92,-126 386.92,-122 322.08,-122 322.08,-86 413.92,-86 413.92,-122"/>
<text text-anchor="middle" x="368" y="-99.8" font-family="Times,serif" font-size="14.00">UsersModule</text>
</g>
<!-- UsersModule&#45;&gt;RoutesModule -->
<g id="edge2" class="edge">
<title>UsersModule&#45;&gt;RoutesModule</title>
<path fill="none" stroke="black" d="M335.25,-122.11C335.25,-122.11 335.25,-140.99 335.25,-140.99"/>
<polygon fill="black" stroke="black" points="331.75,-140.99 335.25,-150.99 338.75,-140.99 331.75,-140.99"/>
</g>
<!-- RoutesService -->
<g id="node4" class="node">
<title>RoutesService</title>
<ellipse fill="#fdb462" stroke="black" cx="231" cy="-104" rx="66.63" ry="18"/>
<text text-anchor="middle" x="231" y="-99.8" font-family="Times,serif" font-size="14.00">RoutesService</text>
</g>
<!-- RoutesService&#45;&gt;RoutesModule -->
<g id="edge3" class="edge">
<title>RoutesService&#45;&gt;RoutesModule</title>
<path fill="none" stroke="black" d="M273.8,-118.1C273.8,-118.1 273.8,-140.72 273.8,-140.72"/>
<polygon fill="black" stroke="black" points="270.3,-140.72 273.8,-150.72 277.3,-140.72 270.3,-140.72"/>
</g>
<!-- StopsService -->
<g id="node5" class="node">
<title>StopsService</title>
<ellipse fill="#fdb462" stroke="black" cx="85" cy="-104" rx="61.41" ry="18"/>
<text text-anchor="middle" x="85" y="-99.8" font-family="Times,serif" font-size="14.00">StopsService</text>
</g>
<!-- StopsService&#45;&gt;RoutesModule -->
<g id="edge4" class="edge">
<title>StopsService&#45;&gt;RoutesModule</title>
<path fill="none" stroke="black" d="M85,-122.11C85,-141.34 85,-169 85,-169 85,-169 239.64,-169 239.64,-169"/>
<polygon fill="black" stroke="black" points="239.64,-172.5 249.64,-169 239.64,-165.5 239.64,-172.5"/>
</g>
</g>
</svg>
