<?xml version="1.0" encoding="UTF-8" standalone="no"?>
<!DOCTYPE svg PUBLIC "-//W3C//DTD SVG 1.1//EN"
 "http://www.w3.org/Graphics/SVG/1.1/DTD/svg11.dtd">
<!-- Generated by graphviz version 2.47.0 (20210316.0004)
 -->
<!-- Title: dependencies Pages: 1 -->
<svg width="882pt" height="211pt"
 viewBox="0.00 0.00 882.00 211.00" xmlns="http://www.w3.org/2000/svg" xmlns:xlink="http://www.w3.org/1999/xlink">
<g id="graph0" class="graph" transform="scale(1 1) rotate(0) translate(4 207)">
<title>dependencies</title>
<polygon fill="white" stroke="transparent" points="-4,4 -4,-207 878,-207 878,4 -4,4"/>
<text text-anchor="start" x="416.01" y="-42.4" font-family="Times-12" font-weight="bold" font-size="14.00">Legend</text>
<polygon fill="#ffffb3" stroke="transparent" points="203,-10 203,-30 223,-30 223,-10 203,-10"/>
<text text-anchor="start" x="226.63" y="-15.4" font-family="Times-12" font-size="14.00"> &#160;Declarations</text>
<polygon fill="#8dd3c7" stroke="transparent" points="316,-10 316,-30 336,-30 336,-10 316,-10"/>
<text text-anchor="start" x="339.73" y="-15.4" font-family="Times-12" font-size="14.00"> &#160;Module</text>
<polygon fill="#80b1d3" stroke="transparent" points="402,-10 402,-30 422,-30 422,-10 402,-10"/>
<text text-anchor="start" x="425.78" y="-15.4" font-family="Times-12" font-size="14.00"> &#160;Bootstrap</text>
<polygon fill="#fdb462" stroke="transparent" points="499,-10 499,-30 519,-30 519,-10 499,-10"/>
<text text-anchor="start" x="522.67" y="-15.4" font-family="Times-12" font-size="14.00"> &#160;Providers</text>
<polygon fill="#fb8072" stroke="transparent" points="595,-10 595,-30 615,-30 615,-10 595,-10"/>
<text text-anchor="start" x="618.73" y="-15.4" font-family="Times-12" font-size="14.00"> &#160;Exports</text>
<g id="clust1" class="cluster">
<title>cluster_AppModule</title>
<polygon fill="none" stroke="black" stroke-dasharray="1,5" points="8,-70 8,-195 866,-195 866,-70 8,-70"/>
</g>
<g id="clust3" class="cluster">
<title>cluster_AppModule_imports</title>
<polygon fill="none" stroke="black" points="154,-78 154,-130 858,-130 858,-78 154,-78"/>
</g>
<g id="clust6" class="cluster">
<title>cluster_AppModule_providers</title>
<polygon fill="none" stroke="black" points="16,-78 16,-130 146,-130 146,-78 16,-78"/>
</g>
<!-- AuthModule -->
<g id="node1" class="node">
<title>AuthModule</title>
<polygon fill="#8dd3c7" stroke="black" points="849.55,-122 846.55,-126 825.55,-126 822.55,-122 762.45,-122 762.45,-86 849.55,-86 849.55,-122"/>
<text text-anchor="middle" x="806" y="-99.8" font-family="Times,serif" font-size="14.00">AuthModule</text>
</g>
<!-- AppModule -->
<g id="node7" class="node">
<title>AppModule</title>
<polygon fill="#8dd3c7" stroke="black" points="470.66,-187 467.66,-191 446.66,-191 443.66,-187 387.34,-187 387.34,-151 470.66,-151 470.66,-187"/>
<text text-anchor="middle" x="429" y="-164.8" font-family="Times,serif" font-size="14.00">AppModule</text>
</g>
<!-- AuthModule&#45;&gt;AppModule -->
<g id="edge1" class="edge">
<title>AuthModule&#45;&gt;AppModule</title>
<path fill="none" stroke="black" d="M806,-122.29C806,-144.21 806,-178 806,-178 806,-178 480.79,-178 480.79,-178"/>
<polygon fill="black" stroke="black" points="480.79,-174.5 470.79,-178 480.79,-181.5 480.79,-174.5"/>
</g>
<!-- ReservationsModule -->
<g id="node2" class="node">
<title>ReservationsModule</title>
<polygon fill="#8dd3c7" stroke="black" points="743.86,-122 740.86,-126 719.86,-126 716.86,-122 612.14,-122 612.14,-86 743.86,-86 743.86,-122"/>
<text text-anchor="middle" x="678" y="-99.8" font-family="Times,serif" font-size="14.00">ReservationsModule</text>
</g>
<!-- ReservationsModule&#45;&gt;AppModule -->
<g id="edge2" class="edge">
<title>ReservationsModule&#45;&gt;AppModule</title>
<path fill="none" stroke="black" d="M678,-122.11C678,-141.34 678,-169 678,-169 678,-169 480.68,-169 480.68,-169"/>
<polygon fill="black" stroke="black" points="480.68,-165.5 470.68,-169 480.68,-172.5 480.68,-165.5"/>
</g>
<!-- RoutesModule -->
<g id="node3" class="node">
<title>RoutesModule</title>
<polygon fill="#8dd3c7" stroke="black" points="594.44,-122 591.44,-126 570.44,-126 567.44,-122 495.56,-122 495.56,-86 594.44,-86 594.44,-122"/>
<text text-anchor="middle" x="545" y="-99.8" font-family="Times,serif" font-size="14.00">RoutesModule</text>
</g>
<!-- RoutesModule&#45;&gt;AppModule -->
<g id="edge3" class="edge">
<title>RoutesModule&#45;&gt;AppModule</title>
<path fill="none" stroke="black" d="M545,-122.03C545,-138.4 545,-160 545,-160 545,-160 480.88,-160 480.88,-160"/>
<polygon fill="black" stroke="black" points="480.88,-156.5 470.88,-160 480.88,-163.5 480.88,-156.5"/>
</g>
<!-- SearchModule -->
<g id="node4" class="node">
<title>SearchModule</title>
<polygon fill="#8dd3c7" stroke="black" points="477.64,-122 474.64,-126 453.64,-126 450.64,-122 380.36,-122 380.36,-86 477.64,-86 477.64,-122"/>
<text text-anchor="middle" x="429" y="-99.8" font-family="Times,serif" font-size="14.00">SearchModule</text>
</g>
<!-- SearchModule&#45;&gt;AppModule -->
<g id="edge4" class="edge">
<title>SearchModule&#45;&gt;AppModule</title>
<path fill="none" stroke="black" d="M429,-122.11C429,-122.11 429,-140.99 429,-140.99"/>
<polygon fill="black" stroke="black" points="425.5,-140.99 429,-150.99 432.5,-140.99 425.5,-140.99"/>
</g>
<!-- StopsModule -->
<g id="node5" class="node">
<title>StopsModule</title>
<polygon fill="#8dd3c7" stroke="black" points="362.17,-122 359.17,-126 338.17,-126 335.17,-122 271.83,-122 271.83,-86 362.17,-86 362.17,-122"/>
<text text-anchor="middle" x="317" y="-99.8" font-family="Times,serif" font-size="14.00">StopsModule</text>
</g>
<!-- StopsModule&#45;&gt;AppModule -->
<g id="edge5" class="edge">
<title>StopsModule&#45;&gt;AppModule</title>
<path fill="none" stroke="black" d="M317,-122.03C317,-138.4 317,-160 317,-160 317,-160 377.3,-160 377.3,-160"/>
<polygon fill="black" stroke="black" points="377.3,-163.5 387.3,-160 377.3,-156.5 377.3,-163.5"/>
</g>
<!-- UsersModule -->
<g id="node6" class="node">
<title>UsersModule</title>
<polygon fill="#8dd3c7" stroke="black" points="253.92,-122 250.92,-126 229.92,-126 226.92,-122 162.08,-122 162.08,-86 253.92,-86 253.92,-122"/>
<text text-anchor="middle" x="208" y="-99.8" font-family="Times,serif" font-size="14.00">UsersModule</text>
</g>
<!-- UsersModule&#45;&gt;AppModule -->
<g id="edge6" class="edge">
<title>UsersModule&#45;&gt;AppModule</title>
<path fill="none" stroke="black" d="M208,-122.11C208,-141.34 208,-169 208,-169 208,-169 377.17,-169 377.17,-169"/>
<polygon fill="black" stroke="black" points="377.17,-172.5 387.17,-169 377.17,-165.5 377.17,-172.5"/>
</g>
<!-- AppService -->
<g id="node8" class="node">
<title>AppService</title>
<ellipse fill="#fdb462" stroke="black" cx="81" cy="-104" rx="56.74" ry="18"/>
<text text-anchor="middle" x="81" y="-99.8" font-family="Times,serif" font-size="14.00">AppService</text>
</g>
<!-- AppService&#45;&gt;AppModule -->
<g id="edge7" class="edge">
<title>AppService&#45;&gt;AppModule</title>
<path fill="none" stroke="black" d="M81,-122.29C81,-144.21 81,-178 81,-178 81,-178 377.02,-178 377.02,-178"/>
<polygon fill="black" stroke="black" points="377.02,-181.5 387.02,-178 377.02,-174.5 377.02,-181.5"/>
</g>
</g>
</svg>
