<?xml version="1.0" encoding="UTF-8" standalone="no"?>
<!DOCTYPE svg PUBLIC "-//W3C//DTD SVG 1.1//EN"
 "http://www.w3.org/Graphics/SVG/1.1/DTD/svg11.dtd">
<!-- Generated by graphviz version 2.47.0 (20210316.0004)
 -->
<!-- Title: dependencies Pages: 1 -->
<svg width="1809pt" height="431pt"
 viewBox="0.00 0.00 1809.00 431.00" xmlns="http://www.w3.org/2000/svg" xmlns:xlink="http://www.w3.org/1999/xlink">
<g id="graph0" class="graph" transform="scale(1 1) rotate(0) translate(4 427)">
<title>dependencies</title>
<polygon fill="white" stroke="transparent" points="-4,4 -4,-427 1805,-427 1805,4 -4,4"/>
<text text-anchor="start" x="879.51" y="-42.4" font-family="Times-12" font-weight="bold" font-size="14.00">Legend</text>
<polygon fill="#ffffb3" stroke="transparent" points="666.5,-10 666.5,-30 686.5,-30 686.5,-10 666.5,-10"/>
<text text-anchor="start" x="690.13" y="-15.4" font-family="Times-12" font-size="14.00"> &#160;Declarations</text>
<polygon fill="#8dd3c7" stroke="transparent" points="779.5,-10 779.5,-30 799.5,-30 799.5,-10 779.5,-10"/>
<text text-anchor="start" x="803.23" y="-15.4" font-family="Times-12" font-size="14.00"> &#160;Module</text>
<polygon fill="#80b1d3" stroke="transparent" points="865.5,-10 865.5,-30 885.5,-30 885.5,-10 865.5,-10"/>
<text text-anchor="start" x="889.28" y="-15.4" font-family="Times-12" font-size="14.00"> &#160;Bootstrap</text>
<polygon fill="#fdb462" stroke="transparent" points="962.5,-10 962.5,-30 982.5,-30 982.5,-10 962.5,-10"/>
<text text-anchor="start" x="986.17" y="-15.4" font-family="Times-12" font-size="14.00"> &#160;Providers</text>
<polygon fill="#fb8072" stroke="transparent" points="1058.5,-10 1058.5,-30 1078.5,-30 1078.5,-10 1058.5,-10"/>
<text text-anchor="start" x="1082.23" y="-15.4" font-family="Times-12" font-size="14.00"> &#160;Exports</text>
<g id="clust1" class="cluster">
<title>cluster_AppModule</title>
<polygon fill="none" stroke="black" stroke-dasharray="1,5" points="821,-146 821,-415 1311,-415 1311,-146 821,-146"/>
</g>
<g id="clust3" class="cluster">
<title>cluster_AppModule_imports</title>
<polygon fill="none" stroke="black" points="967,-154 967,-350 1267,-350 1267,-154 967,-154"/>
</g>
<g id="clust6" class="cluster">
<title>cluster_AppModule_providers</title>
<polygon fill="none" stroke="black" points="829,-298 829,-350 959,-350 959,-298 829,-298"/>
</g>
<g id="clust7" class="cluster">
<title>cluster_AuthModule</title>
<polygon fill="none" stroke="black" stroke-dasharray="1,5" points="383,-146 383,-214 813,-214 813,-146 383,-146"/>
</g>
<g id="clust12" class="cluster">
<title>cluster_AuthModule_providers</title>
<polygon fill="none" stroke="black" points="391,-154 391,-206 805,-206 805,-154 391,-154"/>
</g>
<g id="clust13" class="cluster">
<title>cluster_ReservationsModule</title>
<polygon fill="none" stroke="black" stroke-dasharray="1,5" points="8,-70 8,-138 512,-138 512,-70 8,-70"/>
</g>
<g id="clust18" class="cluster">
<title>cluster_ReservationsModule_providers</title>
<polygon fill="none" stroke="black" points="16,-78 16,-130 504,-130 504,-78 16,-78"/>
</g>
<g id="clust25" class="cluster">
<title>cluster_SearchModule</title>
<polygon fill="none" stroke="black" stroke-dasharray="1,5" points="1629,-222 1629,-290 1793,-290 1793,-222 1629,-222"/>
</g>
<g id="clust30" class="cluster">
<title>cluster_SearchModule_providers</title>
<polygon fill="none" stroke="black" points="1637,-230 1637,-282 1785,-282 1785,-230 1637,-230"/>
</g>
<g id="clust37" class="cluster">
<title>cluster_UsersModule</title>
<polygon fill="none" stroke="black" stroke-dasharray="1,5" points="1319,-222 1319,-290 1593,-290 1593,-222 1319,-222"/>
</g>
<g id="clust40" class="cluster">
<title>cluster_UsersModule_exports</title>
<polygon fill="none" stroke="black" points="1475,-230 1475,-282 1585,-282 1585,-230 1475,-230"/>
</g>
<g id="clust42" class="cluster">
<title>cluster_UsersModule_providers</title>
<polygon fill="none" stroke="black" points="1327,-230 1327,-282 1467,-282 1467,-230 1327,-230"/>
</g>
<!-- AuthModule -->
<g id="node1" class="node">
<title>AuthModule</title>
<polygon fill="#8dd3c7" stroke="black" points="1178.55,-274 1175.55,-278 1154.55,-278 1151.55,-274 1091.45,-274 1091.45,-238 1178.55,-238 1178.55,-274"/>
<text text-anchor="middle" x="1135" y="-251.8" font-family="Times,serif" font-size="14.00">AuthModule</text>
</g>
<!-- AppModule -->
<g id="node7" class="node">
<title>AppModule</title>
<polygon fill="#8dd3c7" stroke="black" points="1283.66,-407 1280.66,-411 1259.66,-411 1256.66,-407 1200.34,-407 1200.34,-371 1283.66,-371 1283.66,-407"/>
<text text-anchor="middle" x="1242" y="-384.8" font-family="Times,serif" font-size="14.00">AppModule</text>
</g>
<!-- AuthModule&#45;&gt;AppModule -->
<g id="edge1" class="edge">
<title>AuthModule&#45;&gt;AppModule</title>
<path fill="none" stroke="black" d="M1178.77,-262C1205.58,-262 1234.78,-262 1234.78,-262 1234.78,-262 1234.78,-360.8 1234.78,-360.8"/>
<polygon fill="black" stroke="black" points="1231.28,-360.8 1234.78,-370.8 1238.28,-360.8 1231.28,-360.8"/>
</g>
<!-- ReservationsModule -->
<g id="node2" class="node">
<title>ReservationsModule</title>
<polygon fill="#8dd3c7" stroke="black" points="1106.86,-342 1103.86,-346 1082.86,-346 1079.86,-342 975.14,-342 975.14,-306 1106.86,-306 1106.86,-342"/>
<text text-anchor="middle" x="1041" y="-319.8" font-family="Times,serif" font-size="14.00">ReservationsModule</text>
</g>
<!-- ReservationsModule&#45;&gt;AppModule -->
<g id="edge2" class="edge">
<title>ReservationsModule&#45;&gt;AppModule</title>
<path fill="none" stroke="black" d="M1041,-342.02C1041,-359.37 1041,-383 1041,-383 1041,-383 1189.86,-383 1189.86,-383"/>
<polygon fill="black" stroke="black" points="1189.86,-386.5 1199.86,-383 1189.86,-379.5 1189.86,-386.5"/>
</g>
<!-- RoutesModule -->
<g id="node3" class="node">
<title>RoutesModule</title>
<polygon fill="#8dd3c7" stroke="black" points="1073.44,-274 1070.44,-278 1049.44,-278 1046.44,-274 974.56,-274 974.56,-238 1073.44,-238 1073.44,-274"/>
<text text-anchor="middle" x="1024" y="-251.8" font-family="Times,serif" font-size="14.00">RoutesModule</text>
</g>
<!-- RoutesModule&#45;&gt;ReservationsModule -->
<g id="edge12" class="edge">
<title>RoutesModule&#45;&gt;ReservationsModule</title>
<path fill="none" stroke="black" d="M1024.14,-274.22C1024.14,-274.22 1024.14,-295.73 1024.14,-295.73"/>
<polygon fill="black" stroke="black" points="1020.64,-295.73 1024.14,-305.73 1027.64,-295.73 1020.64,-295.73"/>
</g>
<!-- SearchModule -->
<g id="node4" class="node">
<title>SearchModule</title>
<polygon fill="#8dd3c7" stroke="black" points="1222.64,-342 1219.64,-346 1198.64,-346 1195.64,-342 1125.36,-342 1125.36,-306 1222.64,-306 1222.64,-342"/>
<text text-anchor="middle" x="1174" y="-319.8" font-family="Times,serif" font-size="14.00">SearchModule</text>
</g>
<!-- RoutesModule&#45;&gt;SearchModule -->
<g id="edge22" class="edge">
<title>RoutesModule&#45;&gt;SearchModule</title>
<path fill="none" stroke="black" d="M1040.5,-274.14C1040.5,-280.46 1040.5,-286 1040.5,-286 1040.5,-286 1157.34,-286 1157.34,-286 1157.34,-286 1157.34,-295.89 1157.34,-295.89"/>
<polygon fill="black" stroke="black" points="1153.84,-295.89 1157.34,-305.89 1160.84,-295.89 1153.84,-295.89"/>
</g>
<!-- RoutesModule&#45;&gt;AppModule -->
<g id="edge3" class="edge">
<title>RoutesModule&#45;&gt;AppModule</title>
<path fill="none" stroke="black" d="M1056.86,-274.17C1056.86,-276.45 1056.86,-278 1056.86,-278 1056.86,-278 1228.8,-278 1228.8,-278 1228.8,-278 1228.8,-360.67 1228.8,-360.67"/>
<polygon fill="black" stroke="black" points="1225.3,-360.67 1228.8,-370.67 1232.3,-360.67 1225.3,-360.67"/>
</g>
<!-- SearchModule&#45;&gt;AppModule -->
<g id="edge4" class="edge">
<title>SearchModule&#45;&gt;AppModule</title>
<path fill="none" stroke="black" d="M1211.5,-342.11C1211.5,-342.11 1211.5,-360.99 1211.5,-360.99"/>
<polygon fill="black" stroke="black" points="1208,-360.99 1211.5,-370.99 1215,-360.99 1208,-360.99"/>
</g>
<!-- StopsModule -->
<g id="node5" class="node">
<title>StopsModule</title>
<polygon fill="#8dd3c7" stroke="black" points="1149.17,-198 1146.17,-202 1125.17,-202 1122.17,-198 1058.83,-198 1058.83,-162 1149.17,-162 1149.17,-198"/>
<text text-anchor="middle" x="1104" y="-175.8" font-family="Times,serif" font-size="14.00">StopsModule</text>
</g>
<!-- StopsModule&#45;&gt;ReservationsModule -->
<g id="edge13" class="edge">
<title>StopsModule&#45;&gt;ReservationsModule</title>
<path fill="none" stroke="black" d="M1077.72,-198.24C1077.72,-198.24 1077.72,-295.91 1077.72,-295.91"/>
<polygon fill="black" stroke="black" points="1074.22,-295.91 1077.72,-305.91 1081.22,-295.91 1074.22,-295.91"/>
</g>
<!-- StopsModule&#45;&gt;RoutesModule -->
<g id="edge18" class="edge">
<title>StopsModule&#45;&gt;RoutesModule</title>
<path fill="none" stroke="black" d="M1063.52,-198.01C1063.52,-198.01 1063.52,-227.85 1063.52,-227.85"/>
<polygon fill="black" stroke="black" points="1060.02,-227.85 1063.52,-237.85 1067.02,-227.85 1060.02,-227.85"/>
</g>
<!-- StopsModule&#45;&gt;SearchModule -->
<g id="edge23" class="edge">
<title>StopsModule&#45;&gt;SearchModule</title>
<path fill="none" stroke="black" d="M1086.72,-198.24C1086.72,-227.57 1086.72,-282 1086.72,-282 1086.72,-282 1168.06,-282 1168.06,-282 1168.06,-282 1168.06,-295.94 1168.06,-295.94"/>
<polygon fill="black" stroke="black" points="1164.56,-295.94 1168.06,-305.94 1171.56,-295.94 1164.56,-295.94"/>
</g>
<!-- StopsModule&#45;&gt;AppModule -->
<g id="edge5" class="edge">
<title>StopsModule&#45;&gt;AppModule</title>
<path fill="none" stroke="black" d="M1137.71,-198.19C1137.71,-201.54 1137.71,-204 1137.71,-204 1137.71,-204 1240.76,-204 1240.76,-204 1240.76,-204 1240.76,-360.92 1240.76,-360.92"/>
<polygon fill="black" stroke="black" points="1237.26,-360.92 1240.76,-370.92 1244.26,-360.92 1237.26,-360.92"/>
</g>
<!-- UsersModule -->
<g id="node6" class="node">
<title>UsersModule</title>
<polygon fill="#8dd3c7" stroke="black" points="1258.92,-198 1255.92,-202 1234.92,-202 1231.92,-198 1167.08,-198 1167.08,-162 1258.92,-162 1258.92,-198"/>
<text text-anchor="middle" x="1213" y="-175.8" font-family="Times,serif" font-size="14.00">UsersModule</text>
</g>
<!-- UsersModule&#45;&gt;AuthModule -->
<g id="edge8" class="edge">
<title>UsersModule&#45;&gt;AuthModule</title>
<path fill="none" stroke="black" d="M1175.9,-198.01C1175.9,-198.01 1175.9,-227.85 1175.9,-227.85"/>
<polygon fill="black" stroke="black" points="1172.4,-227.85 1175.9,-237.85 1179.4,-227.85 1172.4,-227.85"/>
</g>
<!-- UsersModule&#45;&gt;ReservationsModule -->
<g id="edge14" class="edge">
<title>UsersModule&#45;&gt;ReservationsModule</title>
<path fill="none" stroke="black" d="M1173.03,-198.24C1173.03,-213.57 1173.03,-233 1173.03,-233 1173.03,-233 1082.22,-233 1082.22,-233 1082.22,-233 1082.22,-295.58 1082.22,-295.58"/>
<polygon fill="black" stroke="black" points="1078.72,-295.58 1082.22,-305.58 1085.72,-295.58 1078.72,-295.58"/>
</g>
<!-- UsersModule&#45;&gt;RoutesModule -->
<g id="edge19" class="edge">
<title>UsersModule&#45;&gt;RoutesModule</title>
<path fill="none" stroke="black" d="M1170.16,-198.04C1170.16,-211.29 1170.16,-227 1170.16,-227 1170.16,-227 1068.37,-227 1068.37,-227 1068.37,-227 1068.37,-228.08 1068.37,-228.08"/>
<polygon fill="black" stroke="black" points="1064.87,-227.8 1068.37,-237.8 1071.87,-227.8 1064.87,-227.8"/>
</g>
<!-- UsersModule&#45;&gt;SearchModule -->
<g id="edge24" class="edge">
<title>UsersModule&#45;&gt;SearchModule</title>
<path fill="none" stroke="black" d="M1200.8,-198.24C1200.8,-198.24 1200.8,-295.91 1200.8,-295.91"/>
<polygon fill="black" stroke="black" points="1197.3,-295.91 1200.8,-305.91 1204.3,-295.91 1197.3,-295.91"/>
</g>
<!-- UsersModule&#45;&gt;AppModule -->
<g id="edge6" class="edge">
<title>UsersModule&#45;&gt;AppModule</title>
<path fill="none" stroke="black" d="M1246.75,-198.18C1246.75,-198.18 1246.75,-360.71 1246.75,-360.71"/>
<polygon fill="black" stroke="black" points="1243.25,-360.71 1246.75,-370.71 1250.25,-360.71 1243.25,-360.71"/>
</g>
<!-- UsersService  -->
<g id="node16" class="node">
<title>UsersService </title>
<polygon fill="#fb8072" stroke="black" points="1576.85,-274 1483.15,-274 1483.15,-238 1576.85,-238 1576.85,-274"/>
<text text-anchor="middle" x="1530" y="-251.8" font-family="Times,serif" font-size="14.00">UsersService </text>
</g>
<!-- UsersModule&#45;&gt;UsersService  -->
<g id="edge29" class="edge">
<title>UsersModule&#45;&gt;UsersService </title>
<path fill="none" stroke="black" stroke-dasharray="5,2" d="M1258.76,-180C1346.54,-180 1530,-180 1530,-180 1530,-180 1530,-227.99 1530,-227.99"/>
<polygon fill="black" stroke="black" points="1526.5,-227.99 1530,-237.99 1533.5,-227.99 1526.5,-227.99"/>
</g>
<!-- AppService -->
<g id="node8" class="node">
<title>AppService</title>
<ellipse fill="#fdb462" stroke="black" cx="894" cy="-324" rx="56.74" ry="18"/>
<text text-anchor="middle" x="894" y="-319.8" font-family="Times,serif" font-size="14.00">AppService</text>
</g>
<!-- AppService&#45;&gt;AppModule -->
<g id="edge7" class="edge">
<title>AppService&#45;&gt;AppModule</title>
<path fill="none" stroke="black" d="M894,-342.28C894,-363.32 894,-395 894,-395 894,-395 1190.02,-395 1190.02,-395"/>
<polygon fill="black" stroke="black" points="1190.02,-398.5 1200.02,-395 1190.02,-391.5 1190.02,-398.5"/>
</g>
<!-- AuthService -->
<g id="node9" class="node">
<title>AuthService</title>
<ellipse fill="#fdb462" stroke="black" cx="738" cy="-180" rx="59.11" ry="18"/>
<text text-anchor="middle" x="738" y="-175.8" font-family="Times,serif" font-size="14.00">AuthService</text>
</g>
<!-- AuthService&#45;&gt;AuthModule -->
<g id="edge9" class="edge">
<title>AuthService&#45;&gt;AuthModule</title>
<path fill="none" stroke="black" d="M738,-198.14C738,-204.46 738,-210 738,-210 738,-210 1126.09,-210 1126.09,-210 1126.09,-210 1126.09,-227.82 1126.09,-227.82"/>
<polygon fill="black" stroke="black" points="1122.59,-227.82 1126.09,-237.82 1129.59,-227.82 1122.59,-227.82"/>
</g>
<!-- JwtStrategy -->
<g id="node10" class="node">
<title>JwtStrategy</title>
<ellipse fill="#fdb462" stroke="black" cx="604" cy="-180" rx="56.76" ry="18"/>
<text text-anchor="middle" x="604" y="-175.8" font-family="Times,serif" font-size="14.00">JwtStrategy</text>
</g>
<!-- JwtStrategy&#45;&gt;AuthModule -->
<g id="edge10" class="edge">
<title>JwtStrategy&#45;&gt;AuthModule</title>
<path fill="none" stroke="black" d="M604,-198C604,-207 604,-216 604,-216 604,-216 1114.47,-216 1114.47,-216 1114.47,-216 1114.47,-227.87 1114.47,-227.87"/>
<polygon fill="black" stroke="black" points="1110.97,-227.87 1114.47,-237.87 1117.97,-227.87 1110.97,-227.87"/>
</g>
<!-- LocalStrategy -->
<g id="node11" class="node">
<title>LocalStrategy</title>
<ellipse fill="#fdb462" stroke="black" cx="464" cy="-180" rx="65.41" ry="18"/>
<text text-anchor="middle" x="464" y="-175.8" font-family="Times,serif" font-size="14.00">LocalStrategy</text>
</g>
<!-- LocalStrategy&#45;&gt;AuthModule -->
<g id="edge11" class="edge">
<title>LocalStrategy&#45;&gt;AuthModule</title>
<path fill="none" stroke="black" d="M464,-198.1C464,-209.09 464,-221 464,-221 464,-221 1102.85,-221 1102.85,-221 1102.85,-221 1102.85,-227.68 1102.85,-227.68"/>
<polygon fill="black" stroke="black" points="1099.35,-227.68 1102.85,-237.68 1106.35,-227.68 1099.35,-227.68"/>
</g>
<!-- ReservationsService -->
<g id="node12" class="node">
<title>ReservationsService</title>
<ellipse fill="#fdb462" stroke="black" cx="114" cy="-104" rx="89.74" ry="18"/>
<text text-anchor="middle" x="114" y="-99.8" font-family="Times,serif" font-size="14.00">ReservationsService</text>
</g>
<!-- ReservationsService&#45;&gt;ReservationsModule -->
<g id="edge15" class="edge">
<title>ReservationsService&#45;&gt;ReservationsModule</title>
<path fill="none" stroke="black" d="M114,-122.27C114,-171.29 114,-302 114,-302 114,-302 991.43,-302 991.43,-302 991.43,-302 991.43,-302.38 991.43,-302.38"/>
<polygon fill="black" stroke="black" points="987.93,-295.83 991.43,-305.83 994.93,-295.83 987.93,-295.83"/>
</g>
<!-- RoutesService -->
<g id="node13" class="node">
<title>RoutesService</title>
<ellipse fill="#fdb462" stroke="black" cx="289" cy="-104" rx="66.63" ry="18"/>
<text text-anchor="middle" x="289" y="-99.8" font-family="Times,serif" font-size="14.00">RoutesService</text>
</g>
<!-- RoutesService&#45;&gt;ReservationsModule -->
<g id="edge16" class="edge">
<title>RoutesService&#45;&gt;ReservationsModule</title>
<path fill="none" stroke="black" d="M255.59,-119.88C255.59,-166.21 255.59,-298 255.59,-298 255.59,-298 1007.79,-298 1007.79,-298 1007.79,-298 1007.79,-298.79 1007.79,-298.79"/>
<polygon fill="black" stroke="black" points="1004.29,-295.94 1007.79,-305.94 1011.29,-295.94 1004.29,-295.94"/>
</g>
<!-- RoutesService&#45;&gt;RoutesModule -->
<g id="edge20" class="edge">
<title>RoutesService&#45;&gt;RoutesModule</title>
<path fill="none" stroke="black" d="M322.41,-119.69C322.41,-158.53 322.41,-256 322.41,-256 322.41,-256 964.67,-256 964.67,-256"/>
<polygon fill="black" stroke="black" points="964.67,-259.5 974.67,-256 964.67,-252.5 964.67,-259.5"/>
</g>
<!-- RoutesService&#45;&gt;SearchModule -->
<g id="edge25" class="edge">
<title>RoutesService&#45;&gt;SearchModule</title>
<path fill="none" stroke="black" d="M289,-122.22C289,-169.77 289,-294 289,-294 289,-294 1135.9,-294 1135.9,-294 1135.9,-294 1135.9,-295.86 1135.9,-295.86"/>
<polygon fill="black" stroke="black" points="1132.4,-295.86 1135.9,-305.86 1139.4,-295.86 1132.4,-295.86"/>
</g>
<!-- StopsService -->
<g id="node14" class="node">
<title>StopsService</title>
<ellipse fill="#fdb462" stroke="black" cx="435" cy="-104" rx="61.41" ry="18"/>
<text text-anchor="middle" x="435" y="-99.8" font-family="Times,serif" font-size="14.00">StopsService</text>
</g>
<!-- StopsService&#45;&gt;ReservationsModule -->
<g id="edge17" class="edge">
<title>StopsService&#45;&gt;ReservationsModule</title>
<path fill="none" stroke="black" d="M488.5,-113C622.66,-113 962.7,-113 962.7,-113 962.7,-113 962.7,-324 962.7,-324 962.7,-324 964.94,-324 964.94,-324"/>
<polygon fill="black" stroke="black" points="964.94,-327.5 974.94,-324 964.94,-320.5 964.94,-327.5"/>
</g>
<!-- StopsService&#45;&gt;RoutesModule -->
<g id="edge21" class="edge">
<title>StopsService&#45;&gt;RoutesModule</title>
<path fill="none" stroke="black" d="M496.7,-104C646.42,-104 1016.72,-104 1016.72,-104 1016.72,-104 1016.72,-227.97 1016.72,-227.97"/>
<polygon fill="black" stroke="black" points="1013.22,-227.97 1016.72,-237.97 1020.22,-227.97 1013.22,-227.97"/>
</g>
<!-- StopsService&#45;&gt;SearchModule -->
<g id="edge27" class="edge">
<title>StopsService&#45;&gt;SearchModule</title>
<path fill="none" stroke="black" d="M386.17,-115.08C386.17,-155.12 386.17,-290 386.17,-290 386.17,-290 1146.62,-290 1146.62,-290 1146.62,-290 1146.62,-295.81 1146.62,-295.81"/>
<polygon fill="black" stroke="black" points="1143.12,-295.81 1146.62,-305.81 1150.12,-295.81 1143.12,-295.81"/>
</g>
<!-- StopsService&#45;&gt;StopsModule -->
<g id="edge28" class="edge">
<title>StopsService&#45;&gt;StopsModule</title>
<path fill="none" stroke="black" d="M488.34,-95C646.83,-95 1104,-95 1104,-95 1104,-95 1104,-151.97 1104,-151.97"/>
<polygon fill="black" stroke="black" points="1100.5,-151.97 1104,-161.97 1107.5,-151.97 1100.5,-151.97"/>
</g>
<!-- SearchService -->
<g id="node15" class="node">
<title>SearchService</title>
<ellipse fill="#fdb462" stroke="black" cx="1711" cy="-256" rx="66.03" ry="18"/>
<text text-anchor="middle" x="1711" y="-251.8" font-family="Times,serif" font-size="14.00">SearchService</text>
</g>
<!-- SearchService&#45;&gt;SearchModule -->
<g id="edge26" class="edge">
<title>SearchService&#45;&gt;SearchModule</title>
<path fill="none" stroke="black" d="M1711,-274.22C1711,-294.37 1711,-324 1711,-324 1711,-324 1233.08,-324 1233.08,-324"/>
<polygon fill="black" stroke="black" points="1233.08,-320.5 1223.08,-324 1233.08,-327.5 1233.08,-320.5"/>
</g>
<!-- UsersService -->
<g id="node17" class="node">
<title>UsersService</title>
<ellipse fill="#fdb462" stroke="black" cx="1397" cy="-256" rx="61.95" ry="18"/>
<text text-anchor="middle" x="1397" y="-251.8" font-family="Times,serif" font-size="14.00">UsersService</text>
</g>
<!-- UsersService&#45;&gt;UsersModule -->
<g id="edge30" class="edge">
<title>UsersService&#45;&gt;UsersModule</title>
<path fill="none" stroke="black" d="M1338.32,-250C1298.38,-250 1252.73,-250 1252.73,-250 1252.73,-250 1252.73,-208.03 1252.73,-208.03"/>
<polygon fill="black" stroke="black" points="1256.23,-208.03 1252.73,-198.03 1249.23,-208.03 1256.23,-208.03"/>
</g>
</g>
</svg>
