<?xml version="1.0" encoding="UTF-8" standalone="no"?>
<!DOCTYPE svg PUBLIC "-//W3C//DTD SVG 1.1//EN"
 "http://www.w3.org/Graphics/SVG/1.1/DTD/svg11.dtd">
<!-- Generated by graphviz version 2.47.0 (20210316.0004)
 -->
<!-- Title: dependencies Pages: 1 -->
<svg width="869pt" height="211pt"
 viewBox="0.00 0.00 869.00 211.00" xmlns="http://www.w3.org/2000/svg" xmlns:xlink="http://www.w3.org/1999/xlink">
<g id="graph0" class="graph" transform="scale(1 1) rotate(0) translate(4 207)">
<title>dependencies</title>
<polygon fill="white" stroke="transparent" points="-4,4 -4,-207 865,-207 865,4 -4,4"/>
<text text-anchor="start" x="409.51" y="-42.4" font-family="Times-12" font-weight="bold" font-size="14.00">Legend</text>
<polygon fill="#ffffb3" stroke="transparent" points="196.5,-10 196.5,-30 216.5,-30 216.5,-10 196.5,-10"/>
<text text-anchor="start" x="220.13" y="-15.4" font-family="Times-12" font-size="14.00"> &#160;Declarations</text>
<polygon fill="#8dd3c7" stroke="transparent" points="309.5,-10 309.5,-30 329.5,-30 329.5,-10 309.5,-10"/>
<text text-anchor="start" x="333.23" y="-15.4" font-family="Times-12" font-size="14.00"> &#160;Module</text>
<polygon fill="#80b1d3" stroke="transparent" points="395.5,-10 395.5,-30 415.5,-30 415.5,-10 395.5,-10"/>
<text text-anchor="start" x="419.28" y="-15.4" font-family="Times-12" font-size="14.00"> &#160;Bootstrap</text>
<polygon fill="#fdb462" stroke="transparent" points="492.5,-10 492.5,-30 512.5,-30 512.5,-10 492.5,-10"/>
<text text-anchor="start" x="516.17" y="-15.4" font-family="Times-12" font-size="14.00"> &#160;Providers</text>
<polygon fill="#fb8072" stroke="transparent" points="588.5,-10 588.5,-30 608.5,-30 608.5,-10 588.5,-10"/>
<text text-anchor="start" x="612.23" y="-15.4" font-family="Times-12" font-size="14.00"> &#160;Exports</text>
<g id="clust1" class="cluster">
<title>cluster_ReservationsModule</title>
<polygon fill="none" stroke="black" stroke-dasharray="1,5" points="8,-70 8,-195 853,-195 853,-70 8,-70"/>
</g>
<g id="clust3" class="cluster">
<title>cluster_ReservationsModule_imports</title>
<polygon fill="none" stroke="black" points="512,-78 512,-130 845,-130 845,-78 512,-78"/>
</g>
<g id="clust6" class="cluster">
<title>cluster_ReservationsModule_providers</title>
<polygon fill="none" stroke="black" points="16,-78 16,-130 504,-130 504,-78 16,-78"/>
</g>
<!-- RoutesModule -->
<g id="node1" class="node">
<title>RoutesModule</title>
<polygon fill="#8dd3c7" stroke="black" points="837.44,-122 834.44,-126 813.44,-126 810.44,-122 738.56,-122 738.56,-86 837.44,-86 837.44,-122"/>
<text text-anchor="middle" x="788" y="-99.8" font-family="Times,serif" font-size="14.00">RoutesModule</text>
</g>
<!-- ReservationsModule -->
<g id="node4" class="node">
<title>ReservationsModule</title>
<polygon fill="#8dd3c7" stroke="black" points="551.86,-187 548.86,-191 527.86,-191 524.86,-187 420.14,-187 420.14,-151 551.86,-151 551.86,-187"/>
<text text-anchor="middle" x="486" y="-164.8" font-family="Times,serif" font-size="14.00">ReservationsModule</text>
</g>
<!-- RoutesModule&#45;&gt;ReservationsModule -->
<g id="edge1" class="edge">
<title>RoutesModule&#45;&gt;ReservationsModule</title>
<path fill="none" stroke="black" d="M788,-122.28C788,-143.32 788,-175 788,-175 788,-175 561.9,-175 561.9,-175"/>
<polygon fill="black" stroke="black" points="561.9,-171.5 551.9,-175 561.9,-178.5 561.9,-171.5"/>
</g>
<!-- StopsModule -->
<g id="node2" class="node">
<title>StopsModule</title>
<polygon fill="#8dd3c7" stroke="black" points="720.17,-122 717.17,-126 696.17,-126 693.17,-122 629.83,-122 629.83,-86 720.17,-86 720.17,-122"/>
<text text-anchor="middle" x="675" y="-99.8" font-family="Times,serif" font-size="14.00">StopsModule</text>
</g>
<!-- StopsModule&#45;&gt;ReservationsModule -->
<g id="edge2" class="edge">
<title>StopsModule&#45;&gt;ReservationsModule</title>
<path fill="none" stroke="black" d="M675,-122.02C675,-139.37 675,-163 675,-163 675,-163 562.1,-163 562.1,-163"/>
<polygon fill="black" stroke="black" points="562.1,-159.5 552.1,-163 562.1,-166.5 562.1,-159.5"/>
</g>
<!-- UsersModule -->
<g id="node3" class="node">
<title>UsersModule</title>
<polygon fill="#8dd3c7" stroke="black" points="611.92,-122 608.92,-126 587.92,-126 584.92,-122 520.08,-122 520.08,-86 611.92,-86 611.92,-122"/>
<text text-anchor="middle" x="566" y="-99.8" font-family="Times,serif" font-size="14.00">UsersModule</text>
</g>
<!-- UsersModule&#45;&gt;ReservationsModule -->
<g id="edge3" class="edge">
<title>UsersModule&#45;&gt;ReservationsModule</title>
<path fill="none" stroke="black" d="M536.11,-122.11C536.11,-122.11 536.11,-140.99 536.11,-140.99"/>
<polygon fill="black" stroke="black" points="532.61,-140.99 536.11,-150.99 539.61,-140.99 532.61,-140.99"/>
</g>
<!-- ReservationsService -->
<g id="node5" class="node">
<title>ReservationsService</title>
<ellipse fill="#fdb462" stroke="black" cx="406" cy="-104" rx="89.74" ry="18"/>
<text text-anchor="middle" x="406" y="-99.8" font-family="Times,serif" font-size="14.00">ReservationsService</text>
</g>
<!-- ReservationsService&#45;&gt;ReservationsModule -->
<g id="edge4" class="edge">
<title>ReservationsService&#45;&gt;ReservationsModule</title>
<path fill="none" stroke="black" d="M457.97,-118.75C457.97,-118.75 457.97,-140.59 457.97,-140.59"/>
<polygon fill="black" stroke="black" points="454.47,-140.59 457.97,-150.59 461.47,-140.59 454.47,-140.59"/>
</g>
<!-- RoutesService -->
<g id="node6" class="node">
<title>RoutesService</title>
<ellipse fill="#fdb462" stroke="black" cx="231" cy="-104" rx="66.63" ry="18"/>
<text text-anchor="middle" x="231" y="-99.8" font-family="Times,serif" font-size="14.00">RoutesService</text>
</g>
<!-- RoutesService&#45;&gt;ReservationsModule -->
<g id="edge5" class="edge">
<title>RoutesService&#45;&gt;ReservationsModule</title>
<path fill="none" stroke="black" d="M231,-122.02C231,-139.37 231,-163 231,-163 231,-163 410,-163 410,-163"/>
<polygon fill="black" stroke="black" points="410,-166.5 420,-163 410,-159.5 410,-166.5"/>
</g>
<!-- StopsService -->
<g id="node7" class="node">
<title>StopsService</title>
<ellipse fill="#fdb462" stroke="black" cx="85" cy="-104" rx="61.41" ry="18"/>
<text text-anchor="middle" x="85" y="-99.8" font-family="Times,serif" font-size="14.00">StopsService</text>
</g>
<!-- StopsService&#45;&gt;ReservationsModule -->
<g id="edge6" class="edge">
<title>StopsService&#45;&gt;ReservationsModule</title>
<path fill="none" stroke="black" d="M85,-122.28C85,-143.32 85,-175 85,-175 85,-175 409.78,-175 409.78,-175"/>
<polygon fill="black" stroke="black" points="409.78,-178.5 419.78,-175 409.78,-171.5 409.78,-178.5"/>
</g>
</g>
</svg>
