<?xml version="1.0" encoding="UTF-8" standalone="no"?>
<!DOCTYPE svg PUBLIC "-//W3C//DTD SVG 1.1//EN"
 "http://www.w3.org/Graphics/SVG/1.1/DTD/svg11.dtd">
<!-- Generated by graphviz version 2.47.0 (20210316.0004)
 -->
<!-- Title: dependencies Pages: 1 -->
<svg width="822pt" height="211pt"
 viewBox="0.00 0.00 822.00 211.00" xmlns="http://www.w3.org/2000/svg" xmlns:xlink="http://www.w3.org/1999/xlink">
<g id="graph0" class="graph" transform="scale(1 1) rotate(0) translate(4 207)">
<title>dependencies</title>
<polygon fill="white" stroke="transparent" points="-4,4 -4,-207 818,-207 818,4 -4,4"/>
<text text-anchor="start" x="386.01" y="-42.4" font-family="Times-12" font-weight="bold" font-size="14.00">Legend</text>
<polygon fill="#ffffb3" stroke="transparent" points="173,-10 173,-30 193,-30 193,-10 173,-10"/>
<text text-anchor="start" x="196.63" y="-15.4" font-family="Times-12" font-size="14.00"> &#160;Declarations</text>
<polygon fill="#8dd3c7" stroke="transparent" points="286,-10 286,-30 306,-30 306,-10 286,-10"/>
<text text-anchor="start" x="309.73" y="-15.4" font-family="Times-12" font-size="14.00"> &#160;Module</text>
<polygon fill="#80b1d3" stroke="transparent" points="372,-10 372,-30 392,-30 392,-10 372,-10"/>
<text text-anchor="start" x="395.78" y="-15.4" font-family="Times-12" font-size="14.00"> &#160;Bootstrap</text>
<polygon fill="#fdb462" stroke="transparent" points="469,-10 469,-30 489,-30 489,-10 469,-10"/>
<text text-anchor="start" x="492.67" y="-15.4" font-family="Times-12" font-size="14.00"> &#160;Providers</text>
<polygon fill="#fb8072" stroke="transparent" points="565,-10 565,-30 585,-30 585,-10 565,-10"/>
<text text-anchor="start" x="588.73" y="-15.4" font-family="Times-12" font-size="14.00"> &#160;Exports</text>
<g id="clust1" class="cluster">
<title>cluster_SearchModule</title>
<polygon fill="none" stroke="black" stroke-dasharray="1,5" points="8,-70 8,-195 806,-195 806,-70 8,-70"/>
</g>
<g id="clust6" class="cluster">
<title>cluster_SearchModule_providers</title>
<polygon fill="none" stroke="black" points="357,-78 357,-130 798,-130 798,-78 357,-78"/>
</g>
<g id="clust3" class="cluster">
<title>cluster_SearchModule_imports</title>
<polygon fill="none" stroke="black" points="16,-78 16,-130 349,-130 349,-78 16,-78"/>
</g>
<!-- RoutesModule -->
<g id="node1" class="node">
<title>RoutesModule</title>
<polygon fill="#8dd3c7" stroke="black" points="341.44,-122 338.44,-126 317.44,-126 314.44,-122 242.56,-122 242.56,-86 341.44,-86 341.44,-122"/>
<text text-anchor="middle" x="292" y="-99.8" font-family="Times,serif" font-size="14.00">RoutesModule</text>
</g>
<!-- SearchModule -->
<g id="node4" class="node">
<title>SearchModule</title>
<polygon fill="#8dd3c7" stroke="black" points="407.64,-187 404.64,-191 383.64,-191 380.64,-187 310.36,-187 310.36,-151 407.64,-151 407.64,-187"/>
<text text-anchor="middle" x="359" y="-164.8" font-family="Times,serif" font-size="14.00">SearchModule</text>
</g>
<!-- RoutesModule&#45;&gt;SearchModule -->
<g id="edge1" class="edge">
<title>RoutesModule&#45;&gt;SearchModule</title>
<path fill="none" stroke="black" d="M325.7,-122.11C325.7,-122.11 325.7,-140.99 325.7,-140.99"/>
<polygon fill="black" stroke="black" points="322.2,-140.99 325.7,-150.99 329.2,-140.99 322.2,-140.99"/>
</g>
<!-- StopsModule -->
<g id="node2" class="node">
<title>StopsModule</title>
<polygon fill="#8dd3c7" stroke="black" points="224.17,-122 221.17,-126 200.17,-126 197.17,-122 133.83,-122 133.83,-86 224.17,-86 224.17,-122"/>
<text text-anchor="middle" x="179" y="-99.8" font-family="Times,serif" font-size="14.00">StopsModule</text>
</g>
<!-- StopsModule&#45;&gt;SearchModule -->
<g id="edge2" class="edge">
<title>StopsModule&#45;&gt;SearchModule</title>
<path fill="none" stroke="black" d="M179,-122.02C179,-139.37 179,-163 179,-163 179,-163 300.29,-163 300.29,-163"/>
<polygon fill="black" stroke="black" points="300.29,-166.5 310.29,-163 300.29,-159.5 300.29,-166.5"/>
</g>
<!-- UsersModule -->
<g id="node3" class="node">
<title>UsersModule</title>
<polygon fill="#8dd3c7" stroke="black" points="115.92,-122 112.92,-126 91.92,-126 88.92,-122 24.08,-122 24.08,-86 115.92,-86 115.92,-122"/>
<text text-anchor="middle" x="70" y="-99.8" font-family="Times,serif" font-size="14.00">UsersModule</text>
</g>
<!-- UsersModule&#45;&gt;SearchModule -->
<g id="edge3" class="edge">
<title>UsersModule&#45;&gt;SearchModule</title>
<path fill="none" stroke="black" d="M70,-122.28C70,-143.32 70,-175 70,-175 70,-175 300.3,-175 300.3,-175"/>
<polygon fill="black" stroke="black" points="300.3,-178.5 310.3,-175 300.3,-171.5 300.3,-178.5"/>
</g>
<!-- RoutesService -->
<g id="node5" class="node">
<title>RoutesService</title>
<ellipse fill="#fdb462" stroke="black" cx="723" cy="-104" rx="66.63" ry="18"/>
<text text-anchor="middle" x="723" y="-99.8" font-family="Times,serif" font-size="14.00">RoutesService</text>
</g>
<!-- RoutesService&#45;&gt;SearchModule -->
<g id="edge4" class="edge">
<title>RoutesService&#45;&gt;SearchModule</title>
<path fill="none" stroke="black" d="M723,-122.28C723,-143.32 723,-175 723,-175 723,-175 417.71,-175 417.71,-175"/>
<polygon fill="black" stroke="black" points="417.71,-171.5 407.71,-175 417.71,-178.5 417.71,-171.5"/>
</g>
<!-- SearchService -->
<g id="node6" class="node">
<title>SearchService</title>
<ellipse fill="#fdb462" stroke="black" cx="572" cy="-104" rx="66.03" ry="18"/>
<text text-anchor="middle" x="572" y="-99.8" font-family="Times,serif" font-size="14.00">SearchService</text>
</g>
<!-- SearchService&#45;&gt;SearchModule -->
<g id="edge5" class="edge">
<title>SearchService&#45;&gt;SearchModule</title>
<path fill="none" stroke="black" d="M572,-122.02C572,-139.37 572,-163 572,-163 572,-163 417.87,-163 417.87,-163"/>
<polygon fill="black" stroke="black" points="417.87,-159.5 407.87,-163 417.87,-166.5 417.87,-159.5"/>
</g>
<!-- StopsService -->
<g id="node7" class="node">
<title>StopsService</title>
<ellipse fill="#fdb462" stroke="black" cx="426" cy="-104" rx="61.41" ry="18"/>
<text text-anchor="middle" x="426" y="-99.8" font-family="Times,serif" font-size="14.00">StopsService</text>
</g>
<!-- StopsService&#45;&gt;SearchModule -->
<g id="edge6" class="edge">
<title>StopsService&#45;&gt;SearchModule</title>
<path fill="none" stroke="black" d="M386.18,-117.78C386.18,-117.78 386.18,-140.55 386.18,-140.55"/>
<polygon fill="black" stroke="black" points="382.68,-140.55 386.18,-150.55 389.68,-140.55 382.68,-140.55"/>
</g>
</g>
</svg>
